{
    "accessors" : [
        {
            "bufferView" : 0,
            "componentType" : 5123,
            "count" : 21123,
            "max" : [
                8671
            ],
            "min" : [
                0
            ],
            "type" : "SCALAR"
        },
        {
            "bufferView" : 1,
            "componentType" : 5126,
            "count" : 8672,
            "max" : [
                2.8776397705078125,
                2.955230712890625,
                0.3447761535644531
            ],
            "min" : [
                -3.3327789306640625,
                -5.9957122802734375,
                -2.023151397705078
            ],
            "type" : "VEC3"
        },
        {
            "bufferView" : 2,
            "componentType" : 5126,
            "count" : 8672,
            "max" : [
                1.0,
                1.0,
                1.0
            ],
            "min" : [
                -1.0,
                -1.0,
                -1.0
            ],
            "type" : "VEC3"
        },
        {
            "bufferView" : 3,
            "componentType" : 5126,
            "count" : 8672,
            "max" : [
                1.0,
                1.0,
                1.0,
                1.0
            ],
            "min" : [
                -1.0,
                -1.0,
                -1.0,
                -1.0
            ],
            "type" : "VEC4"
        },
        {
            "bufferView" : 4,
            "componentType" : 5126,
            "count" : 8672,
            "max" : [
                0.9985349774360657,
                0.9988842010498047
            ],
            "min" : [
                0.0013208389282226562,
                0.0019530057907104492
            ],
            "type" : "VEC2"
        }
    ],
    "asset" : {
        "generator" : "Khronos Blender glTF 2.0 exporter",
        "version" : "2.0"
    },
    "bufferViews" : [
        {
            "buffer" : 0,
            "byteLength" : 42246,
            "byteOffset" : 0,
            "target" : 34963
        },
        {
            "buffer" : 0,
            "byteLength" : 104064,
            "byteOffset" : 42248,
            "target" : 34962
        },
        {
            "buffer" : 0,
            "byteLength" : 104064,
            "byteOffset" : 146312,
            "target" : 34962
        },
        {
            "buffer" : 0,
            "byteLength" : 138752,
            "byteOffset" : 250376,
            "target" : 34962
        },
        {
            "buffer" : 0,
            "byteLength" : 69376,
            "byteOffset" : 389128,
            "target" : 34962
        }
    ],
    "buffers" : [
        {
            "byteLength" : 458504,
            "uri" : "Moa.bin"
        }
    ],
    "images" : [
        {
            "name" : "cc2-diffuse",
            "uri" : "cc2-diffuse.png"
        },
        {
            "name" : "cc2-normal",
            "uri" : "cc2-normal.png"
        },
        {
            "name" : "cc2-glow-trans",
            "uri" : "cc2-glow-trans.png"
        }
    ],
    "materials" : [
        {
            "emissiveTexture" : {
                "index" : 2
            },
            "name" : "Hull",
            "normalTexture" : {
                "index" : 1
            },
            "pbrMetallicRoughness" : {
                "baseColorFactor" : [
                    0.6400000190734865,
                    0.6400000190734865,
                    0.6400000190734865,
                    1.0
                ],
                "baseColorTexture" : {
                    "index" : 2
                },
                "metallicFactor" : 0.0
            }
        }
    ],
    "meshes" : [
        {
            "name" : "shape",
            "primitives" : [
                {
                    "attributes" : {
                        "NORMAL" : 2,
                        "POSITION" : 1,
                        "TANGENT" : 3,
                        "TEXCOORD_0" : 4
                    },
                    "indices" : 0,
                    "material" : 0
                }
            ]
        }
    ],
    "nodes" : [
        {
            "name" : "Camera",
            "rotation" : [
                0.48170700669288635,
                0.3342514932155609,
                -0.21292175352573395,
                0.7816000580787659
            ],
            "scale" : [
                1.0,
                1.0,
                0.9999999403953552
            ],
            "translation" : [
                7.481131553649902,
                5.34366512298584,
                6.5076398849487305
            ]
        },
        {
            "name" : "Lamp",
            "rotation" : [
                0.16907575726509094,
                0.7558802962303162,
                -0.27217137813568115,
                0.570947527885437
            ],
            "scale" : [
                1.0,
                1.0,
                0.9999999403953552
            ],
            "translation" : [
                4.076245307922363,
                5.903861999511719,
                -1.0054539442062378
            ]
        },
        {
            "mesh" : 0,
            "name" : "shape",
            "rotation" : [
                0.7071068286895752,
                0.0,
                -0.0,
                0.7071067094802856
            ],
            "scale" : [
                0.999932587146759,
                1.0,
                1.0
            ],
            "translation" : [
                0.21487264335155487,
                0.0,
                -0.0
            ]
        }
    ],
    "samplers" : [
        {}
    ],
    "scene" : 0,
    "scenes" : [
        {
            "name" : "Scene",
            "nodes" : [
                2,
                1,
                0
            ]
        }
    ],
    "textures" : [
        {
            "sampler" : 0,
            "source" : 0
        },
        {
            "sampler" : 0,
            "source" : 1
        },
        {
            "sampler" : 0,
            "source" : 2
        }
    ]
}
