{
    "asset" : {
        "version" : "2.0",
        "generator" : "Khronos Blender glTF 2.0 I/O"
    },
    "scene" : 0,
    "scenes" : [
        {
            "nodes" : [
                0,
                1,
                2
            ],
            "name" : "Scene"
        }
    ],
    "nodes" : [
        {
            "mesh" : 0,
            "scale" : [
                0.999932587146759,
                1,
                1
            ],
            "rotation" : [
                0.5000000596046448,
                -0.4999999701976776,
                0.5000000596046448,
                0.4999999403953552
            ],
            "translation" : [
                -1.952157974243164,
                -0.4117659032344818,
                0.215301051735878
            ],
            "name" : "shape"
        },
        {
            "rotation" : [
                0.16907575726509094,
                0.7558802962303162,
                -0.27217137813568115,
                0.570947527885437
            ],
            "translation" : [
                4.076245307922363,
                5.903861999511719,
                -1.0054539442062378
            ],
            "name" : "Lamp"
        },
        {
            "rotation" : [
                0.48170700669288635,
                0.3342514932155609,
                -0.21292175352573395,
                0.7816000580787659
            ],
            "translation" : [
                7.481131553649902,
                5.34366512298584,
                6.5076398849487305
            ],
            "name" : "Camera"
        }
    ],
    "materials" : [
        {
            "name" : "Hull",
            "pbrMetallicRoughness" : {
                "baseColorTexture" : {
                    "index" : 0,
                    "texCoord" : 0
                }
            }
        }
    ],
    "meshes" : [
        {
            "name" : "shape",
            "primitives" : [
                {
                    "attributes" : {
                        "TEXCOORD_0" : 0,
                        "NORMAL" : 1,
                        "POSITION" : 2
                    },
                    "material" : 0,
                    "indices" : 3
                }
            ]
        }
    ],
    "textures" : [
        {
            "source" : 0,
            "sampler" : 0
        }
    ],
    "images" : [
        {
            "uri" : "Diffuse.png",
            "mimeType" : "image/png",
            "name" : "Diffuse"
        }
    ],
    "accessors" : [
        {
            "bufferView" : 0,
            "componentType" : 5126,
            "count" : 8672,
            "type" : "VEC2"
        },
        {
            "bufferView" : 1,
            "componentType" : 5126,
            "count" : 8672,
            "type" : "VEC3"
        },
        {
            "componentType" : 5126,
            "count" : 8672,
            "type" : "VEC3",
            "max" : [
                2.8776397705078125,
                2.955230712890625,
                0.3447761535644531
            ],
            "bufferView" : 2,
            "min" : [
                -3.3327789306640625,
                -5.9957122802734375,
                -2.023151397705078
            ]
        },
        {
            "bufferView" : 3,
            "componentType" : 5123,
            "count" : 21123,
            "type" : "SCALAR"
        }
    ],
    "bufferViews" : [
        {
            "byteLength" : 69376,
            "byteOffset" : 0,
            "buffer" : 0
        },
        {
            "byteLength" : 104064,
            "byteOffset" : 69376,
            "buffer" : 0
        },
        {
            "byteLength" : 104064,
            "byteOffset" : 173440,
            "buffer" : 0
        },
        {
            "byteLength" : 42246,
            "byteOffset" : 277504,
            "buffer" : 0
        }
    ],
    "samplers" : [
        {
            "wrapS" : 10497,
            "wrapT" : 10497,
            "magFilter" : 9729,
            "minFilter" : 9986
        }
    ],
    "buffers" : [
        {
            "byteLength" : 319752,
            "uri" : "Moa.bin"
        }
    ]
}
